<svg xmlns="http://www.w3.org/2000/svg" xmlns:xlink="http://www.w3.org/1999/xlink" version="1.1" x="0px" y="0px" viewBox="0 0 65 81.25" enable-background="new 0 0 65 65" xml:space="preserve"><g><path d="M32.5,22.1L32.5,22.1c1.7,0,3.2-0.6,4.3-1.8c1.1-1.2,1.8-2.7,1.8-4.3c0-3.3-2.7-6.1-6.1-6.1c-3.4,0-6.1,2.8-6.1,6.1   C26.4,19.4,29.2,22.1,32.5,22.1z M32.5,11.5c2.5,0,4.6,2,4.6,4.6c0,1.2-0.5,2.4-1.3,3.2c-0.9,0.9-2,1.4-3.2,1.4l0,0.8v-0.8   c-2.5,0-4.6-2-4.6-4.6C27.9,13.5,29.9,11.5,32.5,11.5z"/><path d="M62.5,10.9H42.4c-0.1-0.2-0.2-0.4-0.3-0.6L43.7,8l-3.3-3.3l-2.3,1.6c-0.9-0.5-1.8-0.9-2.8-1.1l-0.5-2.8l-4.7,0l-0.5,2.8   c-1,0.3-1.9,0.7-2.8,1.2l-2.4-1.6l-3.3,3.3l1.6,2.3c-0.1,0.2-0.1,0.3-0.2,0.5H2.5c-1.5,0-2.8,1.2-2.8,2.8v39c0,1.5,1.2,2.8,2.8,2.8   h21.7l-3.8,5.7h-4v1.5h32.3v-1.5h-4l-3.8-5.7h21.7c1.5,0,2.8-1.2,2.8-2.8v-39C65.3,12.2,64,10.9,62.5,10.9z M24.6,6.7l2.1,1.5   l0.4-0.3c1-0.6,2.1-1.1,3.2-1.4l0.5-0.1l0.5-2.5l2.2,0L34,6.4l0.5,0.1c1.2,0.2,2.2,0.7,3.2,1.3l0.4,0.3l2.1-1.5l1.5,1.5l-1.5,2.1   l0.3,0.4c0.7,1,1.1,2.1,1.4,3.2l0.1,0.5l2.5,0.5l0,2.2l-2.5,0.5L42,18c-0.2,1.2-0.7,2.2-1.3,3.2l-0.3,0.4l1.5,2.1l-1.5,1.5   l-2.1-1.5l-0.4,0.3c-1,0.6-2.1,1.1-3.2,1.4l-0.5,0.1l-0.5,2.5l-2.2,0L31,25.6l-0.5-0.1c-1.1-0.2-2.2-0.7-3.2-1.3L26.9,24l-2.1,1.5   l-1.5-1.5l1.5-2.1l-0.3-0.4c-0.6-1-1.1-2.1-1.4-3.2l-0.1-0.5l-2.5-0.5l0-2.2l2.5-0.5l0.1-0.5c0.2-1.1,0.7-2.2,1.3-3.2l0.3-0.4   l-1.5-2.1L24.6,6.7z M2.5,12.4h19.4c-0.1,0.3-0.2,0.6-0.3,0.8l-2.8,0.5l0,4.7l2.8,0.5c0.3,1,0.7,1.9,1.2,2.8l-1.6,2.4l3.3,3.3   l2.3-1.6c0.9,0.5,1.8,0.9,2.8,1.2l0.5,2.8l4.7,0l0.5-2.8c1-0.3,1.9-0.7,2.8-1.2l2.4,1.6l3.3-3.3l-1.6-2.3c0.5-0.9,0.9-1.8,1.2-2.8   l2.8-0.5l0-4.7l-2.8-0.5c-0.1-0.2-0.2-0.5-0.2-0.7h19.4c0.7,0,1.3,0.6,1.3,1.3v34.6H1.3V13.7C1.3,13,1.8,12.4,2.5,12.4z M42.8,61.1   H22.2l3.8-5.7H39L42.8,61.1z M62.5,53.9h-60c-0.7,0-1.3-0.6-1.3-1.3v-2.9h62.5v2.9C63.8,53.4,63.2,53.9,62.5,53.9z"/><path d="M15.5,38.1l-1.3,1.6h-3.8l0.5,1.1c1,2.2,3.3,3.7,5.8,3.7c2.2,0,4.2-1.1,5.4-3h21.2c1.2,1.8,3.2,3,5.4,3   c2.5,0,4.7-1.4,5.8-3.7l0.5-1.1h-3.8l-1.3-1.6l1.3-1.6h3.9l-0.5-1.1c-1-2.3-3.3-3.8-5.8-3.8c-2.2,0-4.2,1.1-5.4,3H21.9   c-1.2-1.8-3.2-3-5.4-3c-2.5,0-4.8,1.5-5.8,3.8l-0.5,1.1h3.9L15.5,38.1z M16.5,33.2c1.8,0,3.4,1,4.3,2.6l0.2,0.4H44l0.2-0.4   c0.9-1.6,2.5-2.6,4.3-2.6c1.5,0,2.9,0.7,3.8,1.9h-2.1l-2.6,3.1l2.6,3.1h2c-0.9,1.1-2.3,1.7-3.7,1.7c-1.8,0-3.4-1-4.3-2.6L44,40H21   l-0.2,0.4c-0.9,1.6-2.5,2.6-4.3,2.6c-1.4,0-2.8-0.6-3.7-1.7h2l2.6-3.1L14.8,35h-2.1C13.6,33.9,15,33.2,16.5,33.2z"/></g><text x="0" y="80" fill="#000000" font-size="5px" font-weight="bold" font-family="'Helvetica Neue', Helvetica, Arial-Unicode, Arial, Sans-serif">Created by Creative Stall</text><text x="0" y="85" fill="#000000" font-size="5px" font-weight="bold" font-family="'Helvetica Neue', Helvetica, Arial-Unicode, Arial, Sans-serif">from the Noun Project</text></svg>