<svg xmlns:dc="http://purl.org/dc/elements/1.1/" xmlns:cc="http://creativecommons.org/ns#" xmlns:rdf="http://www.w3.org/1999/02/22-rdf-syntax-ns#" xmlns:svg="http://www.w3.org/2000/svg" xmlns="http://www.w3.org/2000/svg" xmlns:sodipodi="http://sodipodi.sourceforge.net/DTD/sodipodi-0.dtd" xmlns:inkscape="http://www.inkscape.org/namespaces/inkscape" version="1.1" x="0px" y="0px" viewBox="0 0 100 125" style="" fill="#000000"><path style="font-size:medium;font-style:normal;font-variant:normal;font-weight:normal;font-stretch:normal;text-indent:0;text-align:start;text-decoration:none;line-height:normal;letter-spacing:normal;word-spacing:normal;text-transform:none;direction:ltr;block-progression:tb;writing-mode:lr-tb;text-anchor:start;baseline-shift:baseline;opacity:1;color:#000000;fill:#000000;fill-opacity:1;stroke:none;stroke-width:4;marker:none;visibility:visible;display:inline;overflow:visible;enable-background:accumulate;font-family:Sans;-inkscape-font-specification:Sans" d="M 8 14 L 8 16 L 8 84 L 8 86 L 10 86 L 90 86 L 92 86 L 92 84 L 92 16 L 92 14 L 90 14 L 10 14 L 8 14 z M 12 18 L 88 18 L 88 28 L 12 28 L 12 18 z M 18 20 C 16.343146 20 15 21.343146 15 23 C 15 24.656854 16.343146 26 18 26 C 19.656854 26 21 24.656854 21 23 C 21 21.343146 19.656854 20 18 20 z M 27 20 C 25.343146 20 24 21.343146 24 23 C 24 24.656854 25.343146 26 27 26 C 28.656854 26 30 24.656854 30 23 C 30 21.343146 28.656854 20 27 20 z M 36 20 C 34.343146 20 33 21.343146 33 23 C 33 24.656854 34.343146 26 36 26 C 37.656854 26 39 24.656854 39 23 C 39 21.343146 37.656854 20 36 20 z M 12 32 L 88 32 L 88 82 L 12 82 L 12 32 z M 44 38 L 44 40 L 44 42.28125 C 43.93883 42.30601 43.873351 42.31824 43.8125 42.34375 L 42.21875 40.75 L 40.8125 39.3125 L 39.40625 40.75 L 33.75 46.40625 L 32.3125 47.8125 L 33.75 49.21875 L 35.34375 50.8125 C 35.31824 50.87335 35.30601 50.938833 35.28125 51 L 33 51 L 31 51 L 31 53 L 31 61 L 31 63 L 33 63 L 35.28125 63 C 35.30601 63.06117 35.31824 63.126649 35.34375 63.1875 L 33.75 64.78125 L 32.3125 66.1875 L 33.75 67.59375 L 39.40625 73.25 L 40.8125 74.6875 L 42.21875 73.25 L 43.8125 71.65625 C 43.87335 71.68176 43.938833 71.69399 44 71.71875 L 44 74 L 44 76 L 46 76 L 54 76 L 56 76 L 56 74 L 56 71.71875 C 56.0522 71.69761 56.104274 71.67793 56.15625 71.65625 C 56.277272 71.777421 56.373914 71.873603 56.5 72 C 57.130637 72.632196 57.78125 73.25 57.78125 73.25 L 59.1875 74.6875 L 60.59375 73.25 L 66.25 67.59375 L 67.6875 66.1875 L 66.25 64.78125 C 66.25 64.78125 65.632196 64.130637 65 63.5 C 64.873603 63.373914 64.777421 63.277272 64.65625 63.15625 C 64.67793 63.10427 64.69761 63.052204 64.71875 63 L 67 63 L 69 63 L 69 61 L 69 53 L 69 51 L 67 51 L 64.71875 51 C 64.69761 50.9478 64.67793 50.895726 64.65625 50.84375 C 64.777421 50.722728 64.873603 50.626086 65 50.5 C 65.632196 49.869363 66.25 49.21875 66.25 49.21875 L 67.6875 47.8125 L 66.25 46.40625 L 60.59375 40.75 L 59.1875 39.3125 L 57.78125 40.75 C 57.78125 40.75 57.130637 41.367804 56.5 42 C 56.373914 42.126397 56.277272 42.222579 56.15625 42.34375 C 56.104274 42.32207 56.052204 42.302385 56 42.28125 L 56 40 L 56 38 L 54 38 L 46 38 L 44 38 z M 48 42 L 52 42 L 52 43.59375 L 52 45.09375 L 53.4375 45.5 C 54.224511 45.734994 54.99198 46.063808 55.6875 46.4375 C 55.6957 46.4419 55.71052 46.4331 55.71875 46.4375 C 55.77891 46.437236 57.624894 46.437559 57.625 46.4375 C 57.625108 46.43744 57.843566 46.281387 57.84375 46.28125 C 57.844118 46.280977 57.949104 46.20445 57.96875 46.1875 C 58.00804 46.1536 58.01932 46.16736 58.03125 46.15625 C 58.05511 46.13403 58.04835 46.10745 58.0625 46.09375 C 58.09079 46.06635 58.15028 46.03676 58.1875 46 C 58.26194 45.92648 58.348743 45.838461 58.46875 45.71875 C 58.665904 45.522082 58.929475 45.258538 59.1875 45 L 62 47.8125 C 61.741462 48.070525 61.477918 48.334096 61.28125 48.53125 C 61.161539 48.651257 61.073523 48.738065 61 48.8125 C 60.96324 48.84972 60.93365 48.90921 60.90625 48.9375 C 60.89255 48.95165 60.86597 48.9449 60.84375 48.96875 C 60.83264 48.98068 60.84645 48.99196 60.8125 49.03125 C 60.79555 49.0509 60.71902 49.155882 60.71875 49.15625 C 60.718613 49.156434 60.56256 49.374892 60.5625 49.375 C 60.562441 49.375106 60.562764 51.221088 60.5625 51.28125 C 60.5669 51.28945 60.5581 51.30425 60.5625 51.3125 C 60.936192 52.00802 61.265006 52.775489 61.5 53.5625 L 61.90625 55 L 63.40625 55 L 65 55 L 65 59 L 63.40625 59 L 61.90625 59 L 61.5 60.4375 C 61.265006 61.224511 60.936192 61.99198 60.5625 62.6875 L 60.5625 62.71875 C 60.562764 62.77891 60.562441 64.624894 60.5625 64.625 C 60.56256 64.625108 60.718613 64.843566 60.71875 64.84375 C 60.719023 64.844118 60.79555 64.949104 60.8125 64.96875 C 60.8464 65.00804 60.83264 65.01932 60.84375 65.03125 C 60.86597 65.05511 60.89255 65.04835 60.90625 65.0625 C 60.93365 65.09079 60.96324 65.15028 61 65.1875 C 61.07352 65.26193 61.161539 65.348743 61.28125 65.46875 C 61.477918 65.665904 61.741462 65.929475 62 66.1875 L 59.1875 69 C 58.929475 68.741462 58.665904 68.477918 58.46875 68.28125 C 58.348743 68.161539 58.261935 68.073523 58.1875 68 C 58.15028 67.96324 58.09079 67.93365 58.0625 67.90625 C 58.04835 67.89255 58.0551 67.86597 58.03125 67.84375 C 58.01932 67.83264 58.00804 67.84645 57.96875 67.8125 C 57.9491 67.79555 57.844118 67.71902 57.84375 67.71875 C 57.843566 67.718613 57.625108 67.56256 57.625 67.5625 C 57.624894 67.562441 55.778912 67.562764 55.71875 67.5625 L 55.6875 67.5625 C 54.99198 67.936192 54.224511 68.265006 53.4375 68.5 L 52 68.90625 L 52 70.40625 L 52 72 L 48 72 L 48 70.40625 L 48 68.90625 L 46.5625 68.5 C 45.766157 68.262219 44.983222 67.942037 44.28125 67.5625 L 42.96875 66.84375 L 41.9375 67.90625 L 40.8125 69.03125 L 37.96875 66.1875 L 39.09375 65.0625 L 40.15625 64.03125 L 39.4375 62.71875 C 39.057963 62.016778 38.737781 61.233843 38.5 60.4375 L 38.09375 59 L 36.59375 59 L 35 59 L 35 55 L 36.59375 55 L 38.09375 55 L 38.5 53.5625 C 38.737781 52.766157 39.057963 51.983222 39.4375 51.28125 L 40.15625 49.96875 L 39.09375 48.9375 L 37.96875 47.8125 L 40.8125 44.96875 L 41.9375 46.09375 L 42.96875 47.15625 L 44.28125 46.4375 C 44.983222 46.057963 45.766157 45.737781 46.5625 45.5 L 48 45.09375 L 48 43.59375 L 48 42 z M 50 48 C 45.053127 48 41 52.053126 41 57 C 41 61.946874 45.053127 66 50 66 C 54.946873 66 59 61.946874 59 57 C 59 52.053126 54.946873 48 50 48 z M 50 52 C 52.785113 52 55 54.214886 55 57 C 55 59.785114 52.785113 62 50 62 C 47.214887 62 45 59.785114 45 57 C 45 54.214886 47.214887 52 50 52 z "/><text x="0" y="115" fill="#000000" font-size="5px" font-weight="bold" font-family="'Helvetica Neue', Helvetica, Arial-Unicode, Arial, Sans-serif">Created by emma mitchell</text><text x="0" y="120" fill="#000000" font-size="5px" font-weight="bold" font-family="'Helvetica Neue', Helvetica, Arial-Unicode, Arial, Sans-serif">from the Noun Project</text></svg>